<?xml version="1.0" standalone="no"?>
<!DOCTYPE svg PUBLIC "-//W3C//DTD SVG 20010904//EN"
 "http://www.w3.org/TR/2001/REC-SVG-20010904/DTD/svg10.dtd">
<svg version="1.0" xmlns="http://www.w3.org/2000/svg"
 width="1280.000000pt" height="1280.000000pt" viewBox="0 0 1280.000000 1280.000000"
 preserveAspectRatio="xMidYMid meet">

<g transform="translate(0.000000,1280.000000) scale(0.100000,-0.100000)"
fill="#000000" stroke="none">
<path d="M7120 11746 c0 -4 12 -22 26 -39 17 -20 22 -32 14 -37 -14 -9 27 -95
58 -124 16 -14 20 -26 15 -50 -3 -17 -3 -28 0 -25 4 3 11 28 17 55 6 27 13 61
16 76 5 21 2 27 -15 33 -12 3 -46 32 -76 63 -30 31 -55 53 -55 48z"/>
<path d="M6997 11514 c-33 -33 -51 -87 -43 -127 4 -17 30 -81 58 -142 l52
-110 9 -149 c10 -142 9 -152 -14 -230 -42 -147 -36 -189 121 -791 38 -148 86
-349 106 -445 48 -233 92 -374 163 -522 32 -68 62 -133 65 -145 4 -13 14 -23
22 -23 12 0 12 4 -1 24 -9 13 -18 35 -19 48 -4 26 -13 55 -27 80 -5 10 -9 26
-9 36 0 10 -4 22 -8 28 -5 5 -21 41 -37 79 -16 39 -34 78 -41 89 -7 10 -10 25
-7 33 3 8 2 18 -4 22 -10 6 -34 93 -54 196 -7 33 -18 71 -26 84 -9 13 -10 20
-4 17 14 -9 14 -1 1 38 -6 17 -26 94 -44 171 -51 210 -114 452 -135 522 -10
34 -16 64 -13 67 3 3 0 6 -7 6 -7 0 -10 4 -6 10 3 5 1 17 -4 27 -16 32 -41
167 -41 223 0 30 11 90 25 133 26 80 27 96 21 207 -3 44 1 72 10 88 15 23 10
44 -18 74 -7 7 -35 57 -62 111 -68 138 -73 203 -20 266 31 38 26 41 -9 5z"/>
<path d="M4684 10183 c-10 -14 -27 -23 -44 -23 -16 0 -30 -7 -34 -15 -3 -8
-15 -15 -26 -15 -11 0 -20 -4 -20 -9 0 -5 -11 -12 -25 -15 -14 -4 -25 -11 -25
-16 0 -6 -7 -10 -15 -10 -8 0 -15 7 -15 15 0 17 -9 19 -30 5 -13 -8 -13 -11
-1 -19 11 -7 9 -14 -13 -36 -15 -15 -30 -24 -33 -21 -4 3 4 15 17 26 13 11 21
22 19 25 -9 9 -119 -49 -119 -62 0 -10 -11 -12 -42 -8 -24 3 -37 2 -29 -1 29
-14 -66 -36 -164 -39 -55 -2 -125 -7 -155 -11 -30 -4 -70 -8 -89 -8 -19 -1
-36 -6 -38 -13 -3 -8 -12 -9 -34 -1 -16 5 -27 14 -24 18 3 5 1 12 -5 15 -6 4
-10 3 -9 -2 3 -18 -2 -27 -9 -16 -5 7 -31 -11 -77 -54 -39 -36 -61 -59 -50
-52 18 13 19 13 6 -3 -7 -10 -17 -15 -22 -13 -4 3 -117 -88 -251 -203 -134
-114 -331 -280 -438 -369 -107 -89 -224 -186 -260 -217 l-65 -55 -7 47 c-4 26
-10 61 -13 79 -5 30 -1 35 60 84 36 29 65 57 65 63 0 6 -16 30 -35 54 -20 26
-32 50 -28 60 4 15 3 15 -6 2 -10 -14 -12 -13 -15 9 0 6 -7 16 -15 23 -11 11
-13 11 -6 -1 5 -9 3 -12 -6 -9 -8 3 -13 9 -12 14 1 5 -14 10 -34 11 l-34 2 46
-31 c25 -17 54 -42 62 -55 15 -22 15 -27 0 -59 -9 -19 -20 -34 -25 -34 -4 0
-9 -12 -10 -27 -3 -32 -42 -79 -42 -50 0 9 -11 24 -25 33 -27 18 -25 34 4 34
11 0 27 8 38 18 10 9 14 14 8 10 -6 -4 -30 -9 -53 -10 l-43 -3 7 -55 c22 -179
81 -484 94 -491 13 -7 1078 -238 1395 -302 l99 -21 -54 -15 c-30 -8 -57 -17
-60 -20 -3 -4 -34 -14 -70 -24 -81 -22 -82 -22 -101 -31 -8 -4 -28 -2 -42 3
-15 6 -27 7 -27 3 0 -11 87 -44 385 -148 149 -52 398 -139 555 -194 157 -55
473 -165 703 -244 l417 -145 143 80 c149 84 317 188 317 195 0 3 -20 -7 -43
-21 -24 -14 -46 -22 -50 -19 -3 3 -63 5 -134 5 -190 -2 -522 42 -638 86 -95
35 -195 96 -262 158 -11 11 -34 32 -49 46 -63 55 -170 203 -196 268 -16 41
-37 120 -53 198 -26 132 -12 515 24 683 47 218 93 351 157 460 8 14 22 42 30
63 9 20 20 37 25 37 5 0 9 5 9 11 0 6 20 34 45 62 25 29 43 57 41 64 -3 7 1
10 8 7 7 -3 21 6 30 20 9 15 23 26 30 26 8 0 27 12 44 28 50 46 96 76 114 75
11 -1 16 3 12 9 -4 7 -2 8 4 4 6 -4 19 -2 29 3 89 47 168 73 273 90 51 8 52 9
15 10 -60 1 -217 -41 -325 -88 -95 -42 -252 -151 -297 -208 -46 -57 -104 -117
-89 -92 9 14 14 29 11 32 -3 4 -2 5 2 2 8 -6 33 14 33 27 0 6 -7 5 -15 -2 -8
-7 -15 -11 -16 -9 -6 27 -3 46 7 46 7 0 10 -6 8 -12 -3 -6 1 -12 8 -12 22 0 7
105 -22 151 -22 36 -22 39 -4 33 16 -5 15 -4 -3 9 -26 19 -32 49 -8 40 17 -6
21 19 5 29 -5 3 -10 1 -10 -6 0 -8 -4 -8 -15 1 -8 7 -23 10 -34 7 -14 -3 -17
0 -14 13 4 14 -4 19 -39 26 -23 4 -66 8 -95 8 -43 1 -55 -2 -69 -21z m-294
-187 c0 -2 -11 -6 -25 -8 -14 -3 -25 -1 -25 3 0 5 11 9 25 9 14 0 25 -2 25 -4z
m-666 -71 c3 -10 -3 -17 -19 -21 -14 -3 -25 -10 -25 -15 0 -5 -3 -8 -7 -8 -21
3 -24 -3 -12 -18 13 -16 12 -17 -3 -4 -14 11 -18 11 -18 1 0 -8 -3 -10 -7 -6
-7 7 65 84 78 86 4 0 9 -7 13 -15z m-157 -130 c0 -8 -4 -12 -9 -9 -5 3 -6 10
-3 15 9 13 12 11 12 -6z m1176 -445 c-3 -12 -8 -19 -11 -16 -5 6 5 36 12 36 2
0 2 -9 -1 -20z m-46 -162 c-3 -8 -6 -5 -6 6 -1 11 2 17 5 13 3 -3 4 -12 1 -19z
m-20 -100 c-3 -8 -6 -5 -6 6 -1 11 2 17 5 13 3 -3 4 -12 1 -19z m-10 -55 c-3
-10 -5 -4 -5 12 0 17 2 24 5 18 2 -7 2 -21 0 -30z m-10 -70 c-3 -10 -5 -4 -5
12 0 17 2 24 5 18 2 -7 2 -21 0 -30z m-2 -98 l-6 -53 -27 14 c-30 15 -72 19
-72 6 0 -5 16 -16 35 -25 44 -21 63 -60 57 -115 -4 -45 -14 -54 -73 -66 -26
-6 -44 -35 -51 -81 -3 -17 5 -21 49 -26 79 -10 79 -10 87 -86 3 -37 9 -80 12
-95 l6 -27 -173 61 c-96 33 -216 74 -267 92 l-93 31 53 10 c52 10 53 11 69 60
14 46 29 61 205 212 104 89 191 157 193 152 2 -6 0 -34 -4 -64z"/>
<path d="M3869 10083 c-13 -16 -12 -17 4 -4 9 7 17 15 17 17 0 8 -8 3 -21 -13z"/>
<path d="M3819 10043 c-13 -16 -12 -17 4 -4 16 13 21 21 13 21 -2 0 -10 -8
-17 -17z"/>
<path d="M4305 10050 c-3 -5 -1 -10 4 -10 6 0 11 5 11 10 0 6 -2 10 -4 10 -3
0 -8 -4 -11 -10z"/>
<path d="M2251 9496 c24 -41 25 -41 32 -21 4 9 -5 22 -24 35 l-29 22 21 -36z"/>
<path d="M2237 9245 c-17 -35 -22 -52 -13 -49 14 5 27 33 41 82 10 37 1 25
-28 -33z"/>
<path d="M2110 9125 c-14 -8 -50 -15 -80 -16 -47 -2 -49 -3 -15 -6 49 -6 96 3
121 22 24 19 7 19 -26 0z"/>
<path d="M2391 9024 c0 -11 3 -14 6 -6 3 7 2 16 -1 19 -3 4 -6 -2 -5 -13z"/>
<path d="M2411 8914 c0 -11 3 -14 6 -6 3 7 2 16 -1 19 -3 4 -6 -2 -5 -13z"/>
<path d="M1885 8890 c27 -12 43 -12 25 0 -8 5 -22 9 -30 9 -10 0 -8 -3 5 -9z"/>
<path d="M1940 8871 c13 -8 430 -158 488 -175 20 -7 22 -4 21 26 -2 29 -2 30
-6 6 l-4 -27 -62 24 c-34 12 -89 32 -122 43 -33 11 -118 41 -189 66 -128 46
-155 53 -126 37z"/>
<path d="M2421 8844 c0 -11 3 -14 6 -6 3 7 2 16 -1 19 -3 4 -6 -2 -5 -13z"/>
<path d="M2545 8660 c27 -12 43 -12 25 0 -8 5 -22 9 -30 9 -10 0 -8 -3 5 -9z"/>
<path d="M7305 7504 c-56 -21 -62 -30 -37 -57 32 -34 27 -37 -27 -16 l-50 18
-93 -43 c-90 -41 -162 -70 -183 -72 -5 0 -41 -10 -79 -22 -37 -12 -82 -22
-100 -23 l-31 -1 35 -12 c19 -7 53 -11 75 -9 34 4 685 -81 689 -89 1 -2 18
-23 37 -48 160 -203 213 -339 244 -620 40 -374 66 -470 209 -745 122 -236 427
-737 588 -967 32 -47 39 -67 57 -178 12 -69 34 -242 51 -385 55 -480 124 -797
246 -1132 118 -324 161 -455 209 -628 76 -279 95 -420 76 -550 -16 -108 -95
-425 -106 -425 -21 0 -117 -51 -154 -81 -68 -54 -162 -211 -160 -266 0 -10 6
0 13 22 38 117 130 236 217 280 62 32 82 32 97 -2 l12 -28 -5 32 c-2 19 16
111 44 225 75 299 76 396 5 688 -32 130 -159 523 -259 800 -21 58 -49 143 -62
190 -24 86 -80 342 -81 370 -1 21 -11 76 -23 132 -6 26 -8 51 -5 57 4 5 3 12
-1 14 -5 3 -7 34 -6 69 0 34 2 118 4 186 1 67 6 125 11 128 4 3 8 18 8 34 0
19 7 33 21 40 11 7 18 18 15 25 -3 9 0 12 10 8 28 -10 13 18 -78 153 -51 75
-102 151 -113 169 -11 19 -54 85 -96 147 -42 62 -84 129 -94 148 -10 19 -36
62 -59 95 -22 33 -39 60 -37 60 6 0 -11 50 -19 55 -4 3 -19 30 -34 60 -36 73
-75 143 -86 154 -6 6 -10 18 -10 28 0 10 -5 18 -12 18 -6 0 -8 3 -5 6 3 4 1
16 -5 28 -7 11 -11 24 -10 29 1 4 -2 7 -6 7 -4 0 -21 34 -37 75 -15 41 -32 75
-36 75 -4 0 -10 7 -13 16 -4 9 -2 13 5 8 6 -3 4 4 -4 17 -8 13 -29 62 -47 109
-18 47 -36 95 -41 108 -5 12 -13 32 -18 45 -32 79 -81 279 -96 387 -7 51 -16
102 -46 250 -21 104 -74 262 -91 268 -4 2 -8 8 -8 13 0 8 -62 110 -82 134 -30
37 -138 194 -138 201 0 2 -36 49 -80 105 -61 79 -77 106 -68 116 13 16 4 16
-47 -3z"/>
<path d="M6348 6983 c7 -3 16 -2 19 1 4 3 -2 6 -13 5 -11 0 -14 -3 -6 -6z"/>
<path d="M6454 6944 c9 -8 36 -22 61 -30 44 -16 45 -16 45 -61 0 -38 3 -44 17
-39 9 4 20 1 25 -6 5 -8 8 0 8 22 0 19 3 45 6 56 5 20 -2 25 -73 48 -92 31
-111 33 -89 10z"/>
<path d="M6770 6840 c8 -5 22 -9 30 -9 10 0 8 3 -5 9 -27 12 -43 12 -25 0z"/>
<path d="M3620 5160 l-225 -5 205 -7 c175 -7 1793 -29 2038 -28 46 0 81 -4 78
-9 -3 -5 -7 -29 -7 -55 -2 -39 -5 -46 -23 -46 -49 0 -64 -11 -75 -55 -7 -29
-11 -200 -11 -490 0 -371 2 -452 15 -481 8 -20 19 -33 25 -29 6 4 24 10 40 15
24 7 29 6 28 -8 -1 -9 0 -32 0 -49 2 -31 4 -33 41 -33 l39 0 5 48 c2 26 12 67
21 91 14 37 17 100 20 451 3 416 -2 516 -30 558 -8 13 -14 33 -12 45 1 12 -1
28 -6 36 -7 11 41 13 315 9 346 -6 337 -3 -51 12 -135 5 -283 14 -330 20 -97
11 -1320 19 -1320 8 0 -4 -6 -5 -12 -3 -27 9 -273 13 -295 4 -14 -5 -30 -6
-36 -2 -14 9 -125 10 -437 3z m2087 -632 c-2 -29 -3 -8 -3 47 0 55 1 79 3 53
2 -26 2 -71 0 -100z m0 -425 c-2 -16 -4 -5 -4 22 0 28 2 40 4 28 2 -13 2 -35
0 -50z"/>
<path d="M2765 5142 c-11 -3 -23 -9 -27 -16 -12 -17 -9 -1048 2 -1066 5 -8 10
-12 10 -8 0 4 20 1 45 -6 l45 -14 0 559 0 559 -27 -2 c-16 -1 -37 -4 -48 -6z"/>
<path d="M6435 5120 c-3 -5 -1 -10 4 -10 6 0 11 5 11 10 0 6 -2 10 -4 10 -3 0
-8 -4 -11 -10z"/>
<path d="M2318 2713 c34 -2 90 -2 125 0 34 2 6 3 -63 3 -69 0 -97 -1 -62 -3z"/>
<path d="M2588 2703 c39 -2 105 -2 145 0 39 1 7 3 -73 3 -80 0 -112 -2 -72 -3z"/>
<path d="M5790 2601 c-21 -4 60 -10 195 -14 127 -4 283 -10 348 -13 74 -4 117
-3 117 3 0 6 -104 13 -272 17 -150 4 -291 8 -313 10 -22 2 -56 1 -75 -3z"/>
<path d="M8198 2492 c-48 -36 -85 -69 -82 -74 3 -4 31 -8 62 -8 l57 0 2 -67
c1 -49 -1 -63 -8 -50 -6 9 -15 14 -21 11 -7 -4 -8 -2 -4 4 11 18 -32 34 -85
30 -42 -3 -53 -9 -73 -36 l-24 -33 -7 28 c-5 15 -8 31 -7 36 1 4 -3 7 -9 7 -7
0 -8 -36 -3 -112 7 -119 24 -173 24 -76 0 41 5 62 20 79 l19 24 2 -45 c1 -31
3 -37 6 -17 5 30 8 32 66 42 25 4 37 11 37 23 0 12 8 7 30 -16 16 -18 34 -30
40 -27 6 4 10 -7 10 -25 0 -18 -4 -29 -10 -25 -5 3 -10 2 -10 -4 0 -5 6 -11
13 -14 9 -3 9 -8 1 -18 -6 -8 -11 -27 -12 -44 -1 -28 0 -29 9 -7 5 13 7 28 3
33 -3 5 -1 9 4 9 6 0 9 71 8 169 -1 109 -5 167 -11 163 -5 -3 -19 -12 -29 -21
-11 -9 -16 -11 -13 -4 4 6 1 14 -5 16 -8 3 -6 6 5 6 9 1 18 8 18 16 1 8 2 20
3 26 2 16 37 39 50 32 6 -3 8 -3 4 2 -4 4 -3 14 3 22 19 22 8 15 -83 -55z m12
-17 c-7 -9 -15 -13 -19 -10 -3 3 1 10 9 15 21 14 24 12 10 -5z m-37 -30 c-3
-9 -8 -14 -10 -11 -3 3 -2 9 2 15 9 16 15 13 8 -4z m77 -9 c0 -3 -4 -8 -10
-11 -5 -3 -10 -1 -10 4 0 6 5 11 10 11 6 0 10 -2 10 -4z"/>
<path d="M8108 1953 c7 -3 16 -2 19 1 4 3 -2 6 -13 5 -11 0 -14 -3 -6 -6z"/>
<path d="M5610 1279 c36 -5 75 -10 88 -10 22 -1 32 -19 10 -19 -6 0 -9 -2 -6
-5 3 -4 18 -3 32 1 21 5 24 9 15 20 -7 8 -26 15 -43 15 -17 0 -60 1 -96 3
l-65 4 65 -9z"/>
<path d="M5779 1237 c16 -20 1 -23 -18 -4 -11 10 -13 9 -8 -5 5 -14 1 -16 -22
-12 -16 3 -31 2 -34 -3 -5 -8 33 -8 106 -1 22 3 22 2 -10 24 -24 15 -26 15
-14 1z"/>
<path d="M5830 1206 c0 -2 8 -10 18 -17 15 -13 16 -12 3 4 -13 16 -21 21 -21
13z"/>
<path d="M5798 1193 c7 -3 16 -2 19 1 4 3 -2 6 -13 5 -11 0 -14 -3 -6 -6z"/>
<path d="M2590 1164 l-35 -14 32 3 32 3 4 -60 3 -61 2 73 c1 39 1 72 0 71 -2
0 -19 -7 -38 -15z"/>
<path d="M2270 1140 c0 -19 5 -26 22 -27 13 -1 28 -10 35 -19 11 -15 13 -12
13 27 0 44 0 44 -35 44 -31 1 -35 -2 -35 -25z"/>
<path d="M5870 1166 c0 -2 7 -7 16 -10 8 -3 12 -2 9 4 -6 10 -25 14 -25 6z"/>
<path d="M8792 1100 c0 -19 2 -27 5 -17 2 9 2 25 0 35 -3 9 -5 1 -5 -18z"/>
<path d="M2446 1082 c-2 -4 14 -6 37 -4 35 2 39 1 24 -8 -12 -8 -39 -9 -77 -5
-55 6 -59 5 -75 -19 l-17 -26 -25 20 c-31 24 -53 26 -53 3 0 -22 32 -123 39
-123 3 0 17 20 30 45 20 37 29 45 53 45 16 0 45 7 65 15 51 22 56 20 49 -20
-6 -29 -3 -39 18 -60 40 -40 47 -61 42 -125 -2 -33 0 -63 5 -66 5 -3 7 -9 4
-14 -3 -5 1 -23 10 -40 18 -36 36 -29 53 18 8 23 6 30 -15 45 -24 18 -24 18
-18 -6 6 -24 -9 -46 -23 -32 -3 3 0 10 8 15 8 6 10 10 4 10 -6 0 -9 21 -6 59
3 47 -1 74 -22 128 -14 38 -26 87 -26 111 l0 42 -39 0 c-22 0 -42 -3 -45 -8z"/>
<path d="M6075 1020 c-3 -5 3 -10 15 -10 12 0 18 5 15 10 -3 6 -10 10 -15 10
-5 0 -12 -4 -15 -10z"/>
<path d="M2630 1015 c0 -5 5 -17 10 -25 5 -8 10 -10 10 -5 0 6 -5 17 -10 25
-5 8 -10 11 -10 5z"/>
<path d="M8793 965 c0 -22 2 -30 4 -17 2 12 2 30 0 40 -3 9 -5 -1 -4 -23z"/>
<path d="M6209 905 c-33 -40 -50 -55 -60 -55 -5 0 -8 4 -5 9 3 5 -1 14 -9 21
-8 7 -15 9 -16 4 0 -5 -4 0 -9 11 -14 32 -12 -82 3 -138 l12 -48 30 56 c25 46
34 55 52 52 12 -2 20 0 17 4 -2 4 12 11 33 14 84 13 79 15 79 -27 0 -31 7 -45
32 -68 18 -16 32 -34 32 -41 0 -7 3 -10 6 -7 9 9 -18 161 -31 178 -7 8 -10 21
-8 28 3 7 -4 12 -19 12 -12 0 -46 3 -74 6 -41 5 -54 3 -65 -11z m26 -5 c-3 -5
-11 -10 -16 -10 -6 0 -7 5 -4 10 3 6 11 10 16 10 6 0 7 -4 4 -10z"/>
<path d="M2521 894 c0 -11 3 -14 6 -6 3 7 2 16 -1 19 -3 4 -6 -2 -5 -13z"/>
<path d="M6268 793 c12 -2 30 -2 40 0 9 3 -1 5 -23 4 -22 0 -30 -2 -17 -4z"/>
<path d="M8846 769 c8 -14 84 -49 104 -48 8 0 -4 8 -27 17 -23 10 -48 23 -55
30 -15 15 -32 16 -22 1z"/>
<path d="M8978 713 c7 -3 16 -2 19 1 4 3 -2 6 -13 5 -11 0 -14 -3 -6 -6z"/>
<path d="M9028 703 c6 -2 18 -2 25 0 6 3 1 5 -13 5 -14 0 -19 -2 -12 -5z"/>
<path d="M9195 700 l-100 -6 102 -2 c59 -1 104 2 108 8 3 6 3 9 -2 8 -4 -1
-53 -5 -108 -8z"/>
<path d="M6412 567 c-14 -16 -4 -89 11 -84 19 6 27 58 13 79 -11 15 -15 16
-24 5z"/>
<path d="M2483 553 c15 -2 37 -2 50 0 12 2 0 4 -28 4 -27 0 -38 -2 -22 -4z"/>
<path d="M6255 349 c22 -4 54 -8 70 -8 26 0 27 2 10 9 -11 5 -42 8 -70 8 l-50
0 40 -9z"/>
</g>
</svg>
