<?xml version="1.0" standalone="no"?>
<!DOCTYPE svg PUBLIC "-//W3C//DTD SVG 20010904//EN"
 "http://www.w3.org/TR/2001/REC-SVG-20010904/DTD/svg10.dtd">
<svg version="1.0" xmlns="http://www.w3.org/2000/svg"
 width="720.000000pt" height="720.000000pt" viewBox="0 0 720.000000 720.000000"
 preserveAspectRatio="xMidYMid meet">

<g transform="translate(0.000000,720.000000) scale(0.100000,-0.100000)"
fill="#000000" stroke="none">
<path d="M4490 3431 c0 -6 4 -13 10 -16 6 -3 7 1 4 9 -7 18 -14 21 -14 7z"/>
<path d="M4515 3380 c4 -14 7 -33 8 -42 1 -10 5 -18 9 -18 16 0 15 17 -4 50
-14 26 -17 29 -13 10z"/>
<path d="M4626 3318 c-19 -40 -36 -49 -36 -20 -1 13 -4 11 -15 -8 -9 -16 -12
-38 -8 -60 l6 -35 -22 24 c-17 20 -21 21 -21 7 0 -10 -5 -14 -11 -10 -8 4 -9
-4 -4 -27 4 -19 9 -36 12 -39 2 -2 31 23 64 56 58 58 60 62 57 105 l-3 44 -19
-37z"/>
<path d="M4383 3275 c-10 -22 -22 -34 -30 -31 -11 4 -11 1 -2 -15 13 -25 13
-25 38 34 24 55 19 64 -6 12z"/>
<path d="M4759 3293 c-13 -16 -12 -17 4 -4 16 13 21 21 13 21 -2 0 -10 -8 -17
-17z"/>
<path d="M4715 3252 c-5 -4 -19 -18 -30 -32 -16 -21 -14 -20 13 4 29 27 37 36
30 36 -2 0 -7 -4 -13 -8z"/>
<path d="M4230 3203 c23 -49 40 -56 39 -15 0 15 -3 21 -6 13 -4 -9 -12 -5 -30
15 l-24 29 21 -42z"/>
<path d="M4829 3198 c-11 -27 -14 -29 -20 -12 -3 10 -4 23 -1 28 2 5 -1 7 -9
4 -8 -3 -21 -23 -29 -46 -9 -23 -20 -45 -25 -49 -6 -5 -7 -4 -2 2 10 13 9 25
-3 25 -15 0 -30 -44 -32 -95 -2 -52 -16 -59 -25 -13 -6 31 -6 31 -16 7 l-10
-24 -6 24 c-5 19 -8 21 -17 10 -6 -8 -14 -23 -18 -34 -7 -19 -8 -19 -21 5
l-13 25 -7 -28 c-5 -18 -12 -26 -21 -23 -10 4 -11 0 -2 -19 11 -24 11 -24 37
-5 40 29 82 30 96 2 12 -21 12 -21 30 18 10 22 36 57 57 78 45 42 68 82 73
123 5 37 1 37 -16 -3z"/>
<path d="M4093 3152 c37 -42 52 -77 22 -52 -13 11 -14 10 -9 -4 3 -9 10 -16
14 -16 4 0 23 -10 41 -23 l35 -24 -19 38 c-16 33 -50 70 -102 109 -11 8 -3 -4
18 -28z m65 -67 c-3 -3 -9 2 -12 12 -6 14 -5 15 5 6 7 -7 10 -15 7 -18z"/>
<path d="M4340 3125 c0 -8 4 -15 10 -15 5 0 7 7 4 15 -4 8 -8 15 -10 15 -2 0
-4 -7 -4 -15z"/>
<path d="M4496 3098 c3 -4 -2 -8 -10 -8 -9 0 -16 -7 -16 -15 0 -9 -9 -15 -25
-15 -20 0 -29 -8 -40 -32 -8 -18 -14 -27 -15 -20 0 21 -40 14 -40 -7 0 -21
-19 -22 -43 -3 -12 10 -16 9 -21 -4 -3 -9 -4 -20 0 -25 3 -5 3 -9 1 -9 -3 0
-19 21 -36 46 -22 33 -29 40 -28 24 3 -37 63 -98 105 -106 20 -4 44 -12 52
-19 34 -27 43 -29 30 -5 -14 27 -7 114 11 136 15 18 56 18 90 0 l26 -13 -10
42 c-5 23 -15 42 -23 42 -7 0 -11 -4 -8 -9z"/>
<path d="M4856 3049 c-3 -17 -6 -43 -6 -58 l-1 -26 -13 24 c-11 20 -14 21 -19
7 -4 -10 -11 -14 -17 -11 -5 3 -15 -6 -22 -20 -7 -15 -17 -24 -25 -21 -7 3
-13 2 -13 -2 0 -15 -48 -62 -64 -62 -9 0 -16 -8 -16 -18 0 -9 -9 -23 -20 -30
-15 -9 -20 -9 -20 0 0 7 -12 -6 -27 -29 -20 -31 -32 -40 -50 -38 -16 2 -23 -3
-23 -16 0 -28 -33 -28 -47 1 -11 24 -11 24 -12 3 -1 -30 -36 -31 -51 -2 -9 17
-14 18 -26 8 -12 -10 -16 -8 -21 9 -3 12 -9 22 -12 22 -22 0 -13 -16 38 -67
31 -31 48 -50 39 -44 -9 7 -22 10 -28 6 -5 -3 -10 -1 -10 4 0 6 -9 11 -20 11
-11 0 -20 -4 -20 -10 0 -5 5 -10 10 -10 6 0 10 -5 10 -10 0 -14 -27 1 -62 35
-30 27 -39 23 -13 -5 14 -16 14 -18 -2 -24 -9 -4 -15 -4 -11 -1 3 3 -5 18 -18
33 -12 15 -32 38 -43 52 -16 19 -23 22 -29 12 -6 -9 -24 1 -70 42 -57 51 -148
97 -190 95 -9 0 2 -6 25 -13 23 -8 66 -31 95 -52 67 -48 78 -57 55 -48 -29 11
-10 -19 26 -40 19 -11 27 -21 19 -23 -7 -3 -19 1 -28 7 -12 11 -13 10 -9 -2 3
-8 23 -20 43 -26 20 -6 64 -28 97 -48 33 -20 87 -48 120 -63 33 -15 74 -42 92
-59 17 -18 36 -32 42 -32 18 0 85 -33 109 -54 l22 -19 0 49 c0 44 30 134 45
134 3 0 21 -16 40 -37 l33 -36 21 40 c24 48 90 106 110 98 15 -6 81 51 81 69
0 5 -11 -1 -25 -14 -14 -13 -28 -20 -32 -17 -3 4 -2 7 3 7 5 0 9 35 9 79 0 67
-2 76 -13 60 -7 -10 -19 -36 -27 -56 -8 -22 -14 -30 -14 -19 -1 31 -15 9 -33
-52 -10 -36 -17 -48 -17 -32 -1 14 3 40 8 58 7 22 6 30 -1 26 -6 -4 -8 1 -3
15 9 31 -4 26 -16 -6 -12 -31 -16 -51 -18 -101 -1 -44 -21 -31 -21 14 0 19 -4
34 -10 34 -5 0 -10 -12 -10 -26 0 -24 -2 -25 -17 -13 -15 13 -16 12 -8 -6 15
-36 17 -82 4 -90 -7 -5 -10 -4 -5 3 3 6 -1 17 -9 26 -8 8 -16 33 -18 55 -3 56
-15 37 -19 -29 -2 -32 -7 -53 -13 -50 -5 3 -10 10 -10 17 0 6 -3 14 -7 18 -3
3 -4 25 -2 48 l4 42 -10 -35 c-5 -19 -10 -48 -12 -63 l-2 -29 -19 23 c-35 44
-5 124 59 154 34 16 36 16 49 -2 11 -14 14 -15 15 -3 0 8 41 53 90 101 86 81
108 116 75 116 -8 0 -12 -4 -10 -8 3 -4 1 -18 -4 -31 -8 -22 -9 -22 -15 9 -4
17 -4 47 0 67 3 20 4 36 1 36 -2 0 -7 -14 -11 -31z m-304 -371 c30 -25 71 -90
74 -116 2 -25 1 -24 -15 8 -9 19 -23 34 -30 32 -8 -2 -11 3 -8 11 5 15 -10 37
-25 37 -4 0 -8 -9 -8 -20 0 -29 -27 -24 -44 8 -13 22 -15 24 -15 7 0 -11 6
-38 14 -59 8 -22 12 -43 9 -47 -2 -4 2 -10 8 -12 9 -4 8 -6 -2 -6 -18 -1 -50
48 -43 66 2 6 -1 15 -8 19 -8 5 -9 3 -4 -6 5 -9 4 -11 -3 -6 -18 11 -14 34 9
67 22 32 63 39 91 17z m14 -124 c-3 -7 3 -15 12 -17 10 -3 6 -5 -10 -6 -22 -1
-26 2 -21 16 5 12 3 14 -7 8 -8 -5 -11 -4 -7 2 9 14 39 12 33 -3z"/>
<path d="M4160 2967 c0 -4 11 -30 24 -57 13 -28 21 -50 16 -50 -4 0 -11 7 -14
16 -3 8 -10 13 -15 9 -5 -3 -13 0 -17 6 -4 8 -3 9 4 5 18 -11 14 0 -5 15 -11
10 -14 10 -9 2 4 -7 3 -13 -3 -13 -6 0 -8 -7 -5 -15 4 -10 -8 -7 -42 12 l-49
26 35 -31 c21 -19 46 -31 63 -32 35 0 92 -24 133 -55 43 -33 48 -31 21 8 -12
18 -31 52 -41 75 -10 23 -23 42 -28 42 -5 0 -1 -14 7 -31 9 -17 14 -33 11 -37
-3 -3 -6 -1 -6 4 0 6 -10 21 -22 34 -13 13 -31 35 -40 49 -10 14 -18 23 -18
18z"/>
<path d="M3828 2923 c7 -3 16 -2 19 1 4 3 -2 6 -13 5 -11 0 -14 -3 -6 -6z"/>
<path d="M3868 2913 c6 -2 18 -2 25 0 6 3 1 5 -13 5 -14 0 -19 -2 -12 -5z"/>
<path d="M4519 2899 c-4 -18 2 -34 19 -55 15 -18 22 -22 18 -11 -3 10 -6 35
-7 55 0 29 -2 33 -8 17 l-8 -20 -5 20 c-3 17 -5 16 -9 -6z"/>
<path d="M3944 2805 c11 -8 22 -12 25 -9 6 6 -19 24 -34 24 -5 -1 -1 -7 9 -15z"/>
<path d="M3701 2794 c0 -11 3 -14 6 -6 3 7 2 16 -1 19 -3 4 -6 -2 -5 -13z"/>
<path d="M4937 2803 c-4 -3 -7 -11 -7 -17 0 -6 5 -5 12 2 6 6 9 14 7 17 -3 3
-9 2 -12 -2z"/>
<path d="M4080 2680 c8 -5 20 -10 25 -10 6 0 3 5 -5 10 -8 5 -19 10 -25 10 -5
0 -3 -5 5 -10z"/>
<path d="M4947 2683 c-3 -5 -8 -28 -12 -53 -4 -25 -14 -54 -22 -65 -14 -19
-15 -17 -10 18 4 22 2 35 -4 32 -5 -4 -9 -17 -9 -31 0 -14 -4 -23 -9 -20 -4 3
-17 -4 -27 -15 -17 -19 -19 -19 -31 -3 -12 16 -13 14 -13 -13 0 -38 -15 -50
-29 -26 -6 10 -11 15 -11 12 0 -15 24 -76 39 -94 16 -20 15 -20 -5 -2 -11 9
-24 14 -29 10 -4 -5 -5 -1 -3 7 3 8 1 23 -4 33 -8 16 -10 16 -26 1 -12 -13
-13 -19 -4 -22 18 -6 15 -20 -5 -25 -15 -4 -15 -6 5 -12 35 -12 26 -59 -13
-67 -26 -5 -43 11 -37 34 6 23 -14 23 -27 1 -7 -13 -13 -15 -18 -7 -6 9 -12 8
-21 -2 -10 -11 -10 -14 0 -14 10 0 10 -2 -1 -9 -15 -9 -22 -5 -68 39 l-26 25
21 -37 c14 -25 17 -38 9 -38 -8 0 -8 -3 1 -9 11 -7 11 -9 -2 -14 -9 -4 -16
-14 -16 -23 0 -10 -5 -14 -14 -11 -8 3 -20 -1 -27 -9 -10 -13 -14 -12 -32 3
-11 10 -17 12 -13 6 5 -9 1 -13 -11 -13 -17 -1 -17 -1 -1 -14 16 -12 14 -15
-17 -46 -30 -29 -35 -31 -35 -14 1 10 7 30 14 43 11 20 11 28 0 50 -8 14 -19
46 -25 70 -6 24 -22 55 -36 69 -19 19 -20 23 -6 18 44 -17 -7 15 -62 39 -51
22 -56 23 -35 6 14 -12 22 -21 18 -21 -11 0 -142 62 -148 70 -3 4 -16 10 -30
14 -14 4 13 -15 60 -43 47 -27 101 -64 120 -80 l35 -31 -59 26 c-32 14 -65 23
-73 20 -9 -4 -11 -1 -7 6 5 8 2 9 -11 4 -10 -4 -21 -2 -25 5 -5 7 -10 7 -14 1
-3 -5 20 -21 52 -35 31 -13 75 -41 97 -61 22 -21 30 -32 18 -26 -28 13 -83 13
-83 -1 0 -5 4 -8 10 -4 13 8 76 -20 118 -52 28 -21 33 -30 29 -53 -3 -15 -1
-33 6 -40 10 -10 8 -12 -5 -7 -21 8 -36 -12 -17 -24 8 -4 20 -3 29 4 8 6 -3
-8 -25 -31 -44 -47 -49 -50 -42 -22 5 18 4 18 -19 3 -28 -18 -32 -38 -6 -29
16 6 16 5 0 -8 -10 -7 -18 -20 -18 -28 0 -8 -5 -19 -12 -26 -19 -19 -7 -20 61
-10 43 7 71 17 85 31 15 16 33 22 63 22 39 0 42 -2 38 -22 -2 -14 1 -23 9 -23
17 0 46 32 46 51 1 10 4 9 14 -4 12 -15 15 -15 19 -3 4 10 17 14 42 12 37 -3
75 -26 42 -26 -9 0 -17 -4 -17 -10 0 -5 8 -10 18 -10 14 0 15 -2 2 -10 -10 -6
-16 -6 -18 0 -2 6 -13 10 -25 10 -21 -1 -21 -1 3 -15 21 -11 81 -21 191 -30
14 -1 30 -4 35 -7 21 -13 74 -19 74 -9 0 6 7 11 15 11 21 0 19 20 -2 21 -14 0
-13 3 5 11 17 9 26 8 41 -6 19 -17 19 -17 14 4 -5 19 -3 20 23 14 45 -11 64
-23 58 -39 -3 -7 -13 -16 -22 -18 -11 -3 -9 -5 7 -6 19 -1 21 -4 12 -15 -10
-12 -3 -11 37 2 28 9 48 20 45 25 -8 12 28 20 40 8 6 -6 17 -11 25 -11 12 0
12 2 1 16 -12 15 -11 16 11 9 14 -4 32 -13 40 -21 19 -16 167 -64 175 -56 3 4
3 -1 -1 -11 -4 -11 -1 -17 7 -18 15 0 66 -59 52 -59 -5 0 -14 5 -21 12 -9 9
-12 9 -12 0 0 -6 -7 -9 -17 -5 -10 4 -14 2 -10 -4 9 -14 -25 -12 -35 2 -5 6
-8 5 -8 -2 0 -7 -7 -13 -16 -13 -8 0 -13 4 -10 8 6 10 -53 7 -62 -4 -4 -4 1
-4 10 -1 12 4 15 2 11 -8 -4 -11 -10 -12 -24 -4 -10 5 -19 13 -19 17 0 4 -9 8
-20 9 -13 1 1 -16 44 -52 83 -71 100 -97 93 -148 -3 -22 -12 -46 -20 -54 -7
-8 -58 -23 -113 -34 -105 -22 -93 -22 -608 -3 -162 6 -179 9 -183 25 -12 43
-33 5 -33 -57 l0 -31 178 -6 c97 -4 208 -14 247 -22 38 -8 115 -15 171 -15
l101 0 120 60 c256 127 573 199 687 156 40 -15 46 -22 60 -64 36 -116 23 -287
-30 -394 -21 -42 -28 -47 -61 -51 -84 -8 64 -7 207 3 199 13 340 31 315 40
-11 4 -23 6 -27 3 -5 -2 -8 1 -8 8 0 8 -4 8 -15 -1 -14 -11 -14 -10 -6 14 7
17 7 26 1 26 -6 0 -10 -7 -10 -15 0 -13 -16 -19 -37 -13 -11 3 -3 32 10 40 7
4 -1 8 -18 8 -21 0 -26 -3 -16 -9 7 -5 9 -11 5 -14 -5 -3 -15 1 -21 9 -8 8 -9
15 -3 19 18 11 -12 31 -44 29 -26 -2 -28 0 -15 9 9 7 14 18 12 24 -4 10 -9 9
-20 -3 -19 -18 -37 -14 -42 12 -2 10 -11 24 -20 31 -26 20 -33 15 -10 -8 16
-16 18 -23 8 -35 -7 -8 -18 -13 -26 -10 -7 3 -13 1 -13 -5 0 -6 -5 -7 -11 -4
-15 10 21 34 41 28 13 -4 13 -3 1 5 -9 7 -21 7 -32 1 -12 -6 -19 -4 -22 6 -4
10 -1 12 11 9 15 -5 15 -4 0 9 -22 18 -23 28 -3 21 11 -4 13 -2 10 9 -4 8 -14
14 -23 13 -9 0 -17 5 -17 12 0 8 -9 20 -20 28 -16 12 -17 16 -6 23 11 7 10 11
-4 18 -13 8 -16 19 -13 46 2 21 -1 38 -7 40 -5 3 -7 7 -3 11 3 4 16 3 27 -4
21 -10 27 -4 22 23 -1 5 3 6 9 2 6 -3 8 -11 5 -16 -8 -12 6 -11 25 1 11 7 11
10 2 10 -7 0 -10 5 -7 10 3 6 -2 10 -11 10 -10 0 -15 3 -12 6 4 3 39 -4 80
-15 83 -24 188 -90 245 -155 45 -52 91 -148 99 -208 6 -43 5 -47 -17 -52 -13
-2 5 -3 41 -1 36 2 103 15 150 30 47 14 93 27 103 28 20 1 23 23 5 29 -27 9
-73 2 -70 -10 2 -10 -2 -11 -15 -3 -12 6 -26 5 -45 -5 -25 -13 -28 -12 -38 7
-14 25 -8 35 9 15 15 -18 48 -9 54 15 3 10 1 17 -4 13 -5 -3 -9 -1 -9 5 0 5 6
12 13 14 9 4 9 6 -1 6 -7 1 -10 6 -7 11 3 6 2 10 -4 10 -6 0 -8 7 -5 15 4 8
-1 26 -10 40 -15 23 -15 24 1 18 11 -4 3 9 -17 30 -19 20 -40 37 -46 37 -7 0
-14 5 -16 12 -3 7 -27 12 -60 12 -31 1 -59 4 -62 7 -4 3 1 19 9 35 11 22 15
57 14 138 -2 148 -14 187 -23 76 -4 -47 -16 -113 -27 -147 -22 -68 -44 -97
-27 -36 18 64 15 291 -4 343 -47 130 -95 186 -214 249 -21 11 -34 20 -29 21
19 1 -73 38 -112 44 -52 9 -170 -16 -250 -54 -76 -35 -155 -107 -184 -167 -18
-38 -22 -41 -36 -28 -19 19 -27 19 -19 -1 3 -9 2 -12 -5 -9 -6 4 -8 13 -5 21
6 15 -40 103 -58 110 -6 2 -11 17 -12 33 -1 17 -13 41 -28 57 l-28 29 7 -25
c4 -14 9 -33 11 -42 3 -10 -3 -21 -16 -28 -16 -9 -20 -8 -20 5 0 18 -11 19
-29 3 -11 -11 -11 -9 -1 10 6 13 9 30 6 38 -3 8 1 25 9 38 12 18 13 30 6 50
-12 30 -26 35 -18 7 4 -15 1 -18 -12 -13 -14 5 -14 4 -1 -13 14 -17 14 -18 -7
-7 -12 7 -31 12 -42 12 -19 0 -20 -5 -16 -42 5 -36 2 -45 -17 -60 -22 -17 -22
-18 -3 -19 11 -1 24 -1 29 0 14 3 57 -29 51 -38 -8 -15 25 -22 47 -10 22 12
48 5 48 -13 0 -9 -3 -9 -11 -1 -6 6 -20 8 -30 6 -15 -4 -20 -13 -19 -37 3 -53
1 -61 -25 -72 -22 -11 -25 -9 -39 20 -21 45 -56 84 -56 63 0 -10 -6 -14 -14
-11 -17 7 -5 60 13 56 6 -1 11 3 11 9 0 6 -7 8 -16 5 -11 -4 -15 -2 -11 8 8
20 -17 50 -35 44 -9 -4 -15 0 -15 8 0 9 6 13 15 9 12 -4 12 -2 -1 18 -14 22
-14 25 4 40 11 10 28 17 38 17 23 0 35 26 15 34 -8 3 -14 1 -14 -4 0 -6 -4
-10 -9 -10 -6 0 -8 9 -6 20 4 21 -23 43 -47 38 -7 -2 -13 4 -13 12 0 11 10 14
37 13 35 -2 37 -1 26 17 -9 14 -14 16 -20 7 -6 -9 -11 -7 -19 6 -5 9 -26 24
-46 32 -43 18 -54 19 -31 2 26 -20 26 -39 1 -42 -17 -1 -23 4 -23 18 0 10 -9
21 -20 24 -11 3 -20 10 -20 15 0 5 10 6 21 3 15 -5 19 -4 15 4 -9 14 32 14 89
0 24 -6 49 -9 55 -7 6 2 -11 27 -39 56 -58 61 -54 68 37 59 44 -4 51 -3 32 5
-14 5 -52 7 -85 4 -33 -3 -73 -7 -90 -8 -16 -2 -36 -11 -43 -20 -7 -10 -19
-18 -27 -18 -9 0 -12 7 -9 18 3 9 -2 6 -10 -8 -8 -14 -15 -19 -16 -11 0 8 -12
-4 -26 -25 -15 -21 -33 -43 -40 -47 -8 -4 -14 -15 -14 -22 0 -8 -5 -15 -11
-15 -6 0 -8 9 -3 23 9 32 70 112 82 110 6 -1 10 15 9 40 0 23 5 53 12 67 l13
25 -21 -22 c-11 -12 -21 -29 -21 -37 0 -8 -4 -18 -10 -21 -6 -4 -10 7 -10 24
0 17 -5 31 -11 31 -5 0 -7 5 -4 10 3 6 4 10 1 10 -3 0 -7 -3 -9 -7z m131 -168
c-6 -14 -13 -23 -16 -21 -7 7 9 46 18 46 5 0 4 -11 -2 -25z m117 -23 c-3 -3
-11 0 -18 7 -9 10 -8 11 6 5 10 -3 15 -9 12 -12z m-301 -55 c5 -22 2 -29 -16
-37 -13 -5 -17 -9 -10 -9 6 -1 12 -14 12 -30 0 -24 -5 -29 -30 -33 -16 -3 -30
-1 -30 4 0 5 -4 7 -9 3 -16 -9 -5 42 12 60 9 9 17 22 17 28 0 20 32 59 40 50
4 -4 10 -20 14 -36z m43 -33 c-3 -3 -12 -4 -19 -1 -8 3 -5 6 6 6 11 1 17 -2
13 -5z m91 -51 c3 -28 0 -33 -20 -34 l-23 -2 23 -4 c12 -2 22 -8 22 -13 0 -12
-44 1 -53 17 -5 7 -12 11 -17 8 -5 -3 -11 -1 -15 5 -3 5 -1 10 6 10 9 0 9 3 0
14 -15 18 12 37 49 33 20 -2 26 -8 28 -34z m152 3 c12 -22 12 -30 3 -33 -18
-6 -16 -23 1 -23 8 0 17 -4 20 -8 3 -5 -9 -6 -25 -4 -16 2 -28 7 -25 9 3 3 -2
12 -10 21 -12 12 -18 12 -24 3 -5 -10 -9 -9 -13 3 -4 9 -1 16 5 16 7 0 7 4 -1
13 -8 10 -7 17 2 26 19 19 50 9 67 -23z m-515 -5 c3 -5 1 -12 -4 -15 -5 -3
-11 1 -15 9 -6 16 9 21 19 6z m115 -30 c0 -5 -6 -12 -12 -14 -7 -3 -3 -6 10
-6 22 -1 22 -2 7 -37 -16 -40 -19 -58 -7 -50 4 2 18 -1 31 -8 21 -12 22 -14 5
-20 -10 -4 -21 -2 -25 5 -4 6 -12 8 -18 5 -6 -4 -11 0 -11 8 0 9 -7 16 -16 16
-10 0 -14 -6 -11 -15 11 -27 -10 -25 -24 3 -8 15 -18 30 -24 34 -6 5 -5 8 2 8
7 0 10 7 6 16 -11 28 15 59 52 61 19 2 35 -1 35 -6z m-114 -17 c-6 -7 -14 -10
-18 -7 -4 2 -6 -2 -3 -9 6 -18 -21 -52 -34 -43 -6 3 -15 -4 -20 -17 -9 -22
-10 -22 -12 7 -4 73 3 83 60 81 28 0 35 -4 27 -12z m232 -10 c12 -4 22 -14 22
-23 0 -14 2 -14 10 -1 7 11 10 8 10 -16 0 -34 -22 -60 -42 -49 -7 4 -5 0 6 -9
10 -8 15 -19 11 -25 -9 -15 -44 19 -48 47 -2 11 -11 30 -22 42 -16 18 -16 20
-2 20 10 0 17 5 17 10 0 11 6 12 38 4z m235 -53 c-5 -35 -3 -39 26 -50 33 -14
61 -41 42 -41 -6 0 -11 5 -11 11 0 6 -6 9 -14 6 -8 -3 -22 3 -32 14 -9 10 -24
19 -32 19 -13 0 -13 -3 1 -18 20 -22 24 -53 5 -34 -20 20 -54 14 -66 -10 l-11
-23 0 23 c-1 15 7 26 24 32 14 5 25 12 25 14 0 3 -7 3 -15 0 -10 -4 -15 0 -15
11 0 11 -5 15 -15 12 -18 -7 -30 9 -13 16 10 4 9 8 -2 17 -12 9 -12 13 -2 17
7 3 18 10 24 17 6 6 28 10 48 8 37 -4 38 -4 33 -41z m-577 8 c3 -5 2 -9 -3 -8
-4 1 -19 -3 -33 -10 l-25 -11 28 3 c15 3 27 3 27 1 0 -11 -59 -68 -82 -80
l-28 -15 0 39 c0 27 7 45 23 59 32 29 81 41 93 22z m105 -26 c7 -10 9 -15 5
-11 -5 4 -14 4 -20 -2 -8 -6 -12 -3 -13 11 -2 24 10 25 28 2z m674 -3 c3 -5 1
-10 -4 -10 -6 0 -11 5 -11 10 0 6 2 10 4 10 3 0 8 -4 11 -10z m-672 -38 c-10
-11 -21 -17 -25 -15 -4 2 -10 -2 -14 -8 -4 -8 -3 -9 4 -5 7 4 12 3 12 -2 0
-16 -34 -39 -67 -45 -32 -6 -33 -5 -33 28 0 18 6 37 13 42 10 6 61 16 115 22
7 0 5 -6 -5 -17z m340 -1 c8 -8 7 -11 -5 -11 -9 0 -19 4 -23 10 -3 5 -12 7
-19 4 -8 -3 -17 -1 -20 5 -9 14 52 7 67 -8z m-176 -25 c-7 -13 -16 -22 -21
-19 -5 4 -6 1 -2 -5 11 -18 -12 -52 -35 -52 -11 0 -18 -4 -15 -9 3 -5 -6 -8
-19 -8 -15 0 -25 5 -25 13 0 8 -4 14 -8 14 -4 0 -8 15 -7 33 0 24 4 32 18 31
9 -1 17 2 17 6 0 4 13 7 29 6 16 -1 37 1 47 5 30 12 33 10 21 -15z m-407 1 c0
-7 -9 -18 -20 -24 -17 -11 -18 -10 -13 5 6 14 22 31 31 32 1 0 2 -6 2 -13z
m568 -5 c25 2 38 0 34 -6 -3 -6 -7 -24 -8 -41 -1 -16 -2 -33 -3 -37 0 -3 -21
-13 -46 -21 -42 -15 -44 -14 -50 3 -4 11 -12 17 -21 13 -7 -3 -14 0 -14 6 0 6
5 11 11 11 8 0 8 4 0 14 -9 11 -8 18 4 30 9 9 21 14 26 11 5 -4 9 4 9 17 0 17
3 19 9 9 6 -9 22 -12 49 -9z m199 -18 c38 -7 39 -8 37 -49 -2 -40 -6 -46 -46
-63 -21 -9 -29 -8 -39 4 -9 11 -15 12 -26 2 -11 -9 -13 -8 -11 3 2 8 7 17 11
20 5 3 1 23 -7 44 -12 29 -13 35 -2 26 17 -15 49 -3 42 16 -3 8 -1 11 4 8 6
-4 22 -9 37 -11z m-689 -26 c-2 -12 -8 -23 -14 -25 -7 -2 -10 6 -7 22 6 30 26
34 21 3z m-104 -9 c-58 -62 -68 -69 -95 -67 -23 2 -26 5 -18 20 5 10 14 18 19
18 6 0 10 6 10 14 0 17 24 28 44 20 8 -3 23 -1 33 5 27 16 29 13 7 -10z m76
11 c0 -5 -5 -10 -11 -10 -5 0 -7 5 -4 10 3 6 8 10 11 10 2 0 4 -4 4 -10z
m1048 -27 c0 -5 2 -15 5 -23 3 -8 10 -32 15 -52 8 -30 7 -38 -6 -43 -19 -7
-39 16 -49 54 -4 15 -2 26 5 29 7 2 12 12 12 23 0 10 5 19 10 19 6 0 9 -3 8
-7z m-673 -39 c17 -15 22 -24 13 -20 -13 4 -18 0 -18 -12 -1 -15 -2 -15 -15 2
-7 10 -18 15 -24 12 -5 -4 -15 2 -20 13 -8 14 -8 21 2 24 22 10 32 7 62 -19z
m-95 -14 c0 -18 -3 -19 -20 -8 -14 9 -16 14 -7 20 20 13 27 9 27 -12z m130
-34 c0 -2 -7 -7 -16 -10 -8 -3 -12 -2 -9 4 6 10 25 14 25 6z m660 -100 c0 -2
-7 -7 -16 -10 -8 -3 -12 -2 -9 4 6 10 25 14 25 6z m518 -263 c-10 -2 -26 -2
-35 0 -10 3 -2 5 17 5 19 0 27 -2 18 -5z m146 -331 c3 -5 -1 -9 -9 -9 -8 0
-15 4 -15 9 0 4 4 8 9 8 6 0 12 -4 15 -8z m470 0 c3 -5 -1 -9 -9 -9 -8 0 -12
4 -9 9 3 4 7 8 9 8 2 0 6 -4 9 -8z m-403 -44 c-11 -10 -23 -18 -26 -18 -3 0 0
8 6 18 7 10 18 19 25 19 10 0 8 -6 -5 -19z"/>
<path d="M4169 2601 c57 -33 94 -61 87 -68 -2 -2 -23 9 -47 25 -41 26 -145 72
-123 54 44 -37 124 -91 144 -97 14 -4 54 -22 90 -41 36 -18 82 -36 103 -40 20
-3 40 -10 43 -15 13 -21 24 -6 24 31 0 22 -4 40 -10 40 -5 0 -10 -14 -10 -31
0 -31 0 -31 -25 -15 -14 9 -30 14 -36 11 -5 -4 -48 31 -94 78 -47 47 -85 80
-85 75 0 -5 -6 -6 -12 -1 -7 4 -22 9 -33 10 -11 0 -31 4 -45 8 -14 4 -1 -7 29
-24z"/>
<path d="M4684 2460 c10 -51 22 -64 28 -32 3 13 -27 82 -36 82 -2 0 2 -22 8
-50z"/>
<path d="M4396 2477 c3 -10 9 -15 12 -12 3 3 0 11 -7 18 -10 9 -11 8 -5 -6z"/>
<path d="M4500 2396 c0 -2 8 -10 18 -17 15 -13 16 -12 3 4 -13 16 -21 21 -21
13z"/>
<path d="M5280 2371 c0 -10 30 -24 37 -17 3 2 -5 9 -16 16 -12 6 -21 7 -21 1z"/>
<path d="M5330 2339 c0 -6 -4 -7 -10 -4 -5 3 -10 0 -10 -7 0 -18 40 -42 52
-30 5 5 6 16 3 25 -8 18 -35 31 -35 16z"/>
<path d="M3650 2150 c-1 -52 -1 -108 0 -124 1 -15 -2 -26 -7 -23 -4 3 -6 -15
-4 -39 2 -32 -1 -44 -10 -45 -8 -1 2 -5 21 -9 19 -5 36 -8 37 -6 1 1 -3 19 -8
41 -6 22 -14 99 -18 170 l-8 130 -3 -95z"/>
<path d="M5335 2100 c-3 -5 -1 -10 4 -10 6 0 11 5 11 10 0 6 -2 10 -4 10 -3 0
-8 -4 -11 -10z"/>
<path d="M4538 2013 c7 -3 16 -2 19 1 4 3 -2 6 -13 5 -11 0 -14 -3 -6 -6z"/>
<path d="M4980 1960 c-8 -5 -10 -10 -5 -10 6 0 17 5 25 10 8 5 11 10 5 10 -5
0 -17 -5 -25 -10z"/>
<path d="M4275 1424 c-5 -2 -46 -10 -90 -18 -49 -9 -67 -14 -45 -15 37 -1 146
22 157 33 7 7 -6 7 -22 0z"/>
<path d="M6130 1421 c0 -6 4 -13 10 -16 6 -3 7 1 4 9 -7 18 -14 21 -14 7z"/>
<path d="M6228 1403 c7 -3 16 -2 19 1 4 3 -2 6 -13 5 -11 0 -14 -3 -6 -6z"/>
<path d="M3587 1391 c-26 -3 -47 -9 -47 -13 1 -41 0 -44 -14 -26 -12 17 -26
15 -26 -4 0 -14 161 -86 205 -91 31 -4 36 -3 19 5 -11 5 -29 23 -38 40 -18 29
-18 31 1 57 19 25 24 26 149 31 l129 6 -165 0 c-91 1 -186 -2 -213 -5z"/>
<path d="M6367 1323 c-4 -3 -7 -13 -7 -22 1 -13 3 -13 11 2 11 19 8 33 -4 20z"/>
<path d="M5020 1241 c-7 -22 -16 -39 -19 -37 -3 2 -12 -2 -18 -10 -10 -9 -10
-15 -1 -20 18 -11 -21 -34 -61 -36 -22 0 -10 -4 29 -8 36 -4 124 -5 195 -2
134 4 185 12 78 12 -42 0 -64 5 -73 15 -7 8 -20 15 -30 15 -10 0 -31 23 -52
56 l-34 56 -14 -41z"/>
<path d="M4960 1220 c0 -5 5 -10 10 -10 6 0 10 5 10 10 0 6 -4 10 -10 10 -5 0
-10 -4 -10 -10z"/>
<path d="M3653 1193 c15 -2 37 -2 50 0 12 2 0 4 -28 4 -27 0 -38 -2 -22 -4z"/>
<path d="M6790 1180 c-19 -11 -31 -19 -27 -20 11 0 67 29 67 35 0 7 -1 7 -40
-15z"/>
<path d="M4955 1160 c-3 -6 1 -7 9 -4 18 7 21 14 7 14 -6 0 -13 -4 -16 -10z"/>
<path d="M3622 1103 c17 -41 48 -89 37 -58 -25 67 -43 105 -50 105 -4 0 1 -21
13 -47z"/>
<path d="M5618 1133 c7 -3 16 -2 19 1 4 3 -2 6 -13 5 -11 0 -14 -3 -6 -6z"/>
<path d="M6408 1113 c7 -3 16 -2 19 1 4 3 -2 6 -13 5 -11 0 -14 -3 -6 -6z"/>
<path d="M6358 1103 c7 -3 16 -2 19 1 4 3 -2 6 -13 5 -11 0 -14 -3 -6 -6z"/>
<path d="M6308 1093 c6 -2 18 -2 25 0 6 3 1 5 -13 5 -14 0 -19 -2 -12 -5z"/>
<path d="M3830 1085 c0 -5 5 -17 10 -25 5 -8 10 -10 10 -5 0 6 -5 17 -10 25
-5 8 -10 11 -10 5z"/>
<path d="M6208 1073 c6 -2 18 -2 25 0 6 3 1 5 -13 5 -14 0 -19 -2 -12 -5z"/>
<path d="M6636 1037 c-10 -26 -25 -51 -34 -57 -16 -9 -15 -9 1 -10 18 0 61 82
54 103 -2 6 -11 -11 -21 -36z"/>
<path d="M6158 1063 c6 -2 18 -2 25 0 6 3 1 5 -13 5 -14 0 -19 -2 -12 -5z"/>
<path d="M6093 1053 c9 -2 23 -2 30 0 6 3 -1 5 -18 5 -16 0 -22 -2 -12 -5z"/>
<path d="M6023 1043 c9 -2 25 -2 35 0 9 3 1 5 -18 5 -19 0 -27 -2 -17 -5z"/>
<path d="M5953 1033 c9 -2 25 -2 35 0 9 3 1 5 -18 5 -19 0 -27 -2 -17 -5z"/>
<path d="M5883 1023 c9 -2 23 -2 30 0 6 3 -1 5 -18 5 -16 0 -22 -2 -12 -5z"/>
<path d="M3755 955 c14 -36 25 -68 25 -70 0 -3 4 -5 9 -5 6 0 -1 25 -15 55
-29 68 -29 68 -1 60 15 -5 19 -4 12 3 -5 5 -20 13 -32 16 l-23 7 25 -66z"/>
<path d="M6321 1004 c0 -11 3 -14 6 -6 3 7 2 16 -1 19 -3 4 -6 -2 -5 -13z"/>
<path d="M3860 998 c0 -21 5 -24 50 -32 l35 -6 -33 13 c-18 7 -37 19 -42 27
-8 13 -10 12 -10 -2z"/>
<path d="M6676 958 c-10 -29 -21 -60 -24 -68 -3 -10 -2 -12 5 -5 14 14 54 125
45 125 -4 0 -16 -24 -26 -52z"/>
<path d="M4070 940 c14 -4 39 -8 55 -8 l30 0 -30 8 c-16 4 -41 8 -55 8 l-25 0
25 -8z"/>
<path d="M6292 934 c-7 -8 -26 -14 -42 -14 -16 0 -31 -3 -33 -7 -3 -5 14 -6
38 -5 28 3 46 10 50 19 8 21 3 24 -13 7z"/>
<path d="M6425 939 c-16 -7 -14 -8 9 -4 17 4 32 1 36 -5 5 -8 9 -7 13 4 7 18
-24 21 -58 5z"/>
<path d="M4270 918 c0 -4 16 -8 35 -8 19 0 35 2 35 4 0 2 -16 6 -35 8 -19 2
-35 0 -35 -4z"/>
<path d="M3705 898 c4 -13 12 -27 18 -33 7 -7 8 -4 2 10 -4 11 -8 26 -8 33 0
6 -4 12 -9 12 -5 0 -6 -10 -3 -22z"/>
<path d="M1870 868 c-14 -14 -42 -31 -63 -39 -20 -7 -36 -17 -34 -23 2 -5 55
-33 119 -61 l116 -52 -49 49 c-46 46 -52 59 -62 137 -1 9 -10 5 -27 -11z"/>
<path d="M5745 880 l-60 -7 62 -1 c34 -1 65 3 68 8 3 6 3 9 -2 8 -4 -1 -35 -4
-68 -8z"/>
<path d="M5185 870 c-28 -7 -27 -8 13 -9 27 -1 41 3 37 9 -7 11 -7 11 -50 0z"/>
<path d="M6444 858 c-4 -13 -14 -28 -23 -35 -9 -7 -11 -12 -6 -13 18 0 32 15
39 43 8 32 0 36 -10 5z"/>
<path d="M5418 863 c12 -2 30 -2 40 0 9 3 -1 5 -23 4 -22 0 -30 -2 -17 -4z"/>
<path d="M6549 814 c-10 -19 -12 -33 -7 -32 12 4 40 68 30 68 -4 -1 -14 -16
-23 -36z"/>
<path d="M1710 800 c-18 -12 -2 -12 25 0 13 6 15 9 5 9 -8 0 -22 -4 -30 -9z"/>
<path d="M3930 801 c0 -10 19 -25 25 -20 1 2 -3 10 -11 17 -8 7 -14 8 -14 3z"/>
<path d="M6616 795 c-9 -26 -7 -32 5 -12 6 10 9 21 6 23 -2 3 -7 -2 -11 -11z"/>
<path d="M6178 783 c7 -3 16 -2 19 1 4 3 -2 6 -13 5 -11 0 -14 -3 -6 -6z"/>
<path d="M3760 760 c6 -11 12 -20 14 -20 2 0 2 9 -1 20 -3 11 -9 20 -15 20 -5
0 -4 -9 2 -20z"/>
<path d="M1525 738 c-86 -26 -124 -31 -275 -37 l-175 -8 156 -1 c146 -2 410
23 462 43 34 14 16 25 -30 18 -34 -4 -44 -3 -39 5 4 7 6 11 4 11 -2 -1 -48
-15 -103 -31z"/>
<path d="M3299 745 c-27 -14 -308 -85 -422 -105 -37 -7 -66 -14 -64 -17 18
-17 527 109 527 131 0 9 -13 6 -41 -9z"/>
<path d="M6595 750 c-3 -5 -1 -10 4 -10 6 0 11 5 11 10 0 6 -2 10 -4 10 -3 0
-8 -4 -11 -10z"/>
<path d="M5108 743 c6 -2 18 -2 25 0 6 3 1 5 -13 5 -14 0 -19 -2 -12 -5z"/>
<path d="M6220 730 c-13 -8 -13 -10 2 -10 9 0 20 5 23 10 8 13 -5 13 -25 0z"/>
<path d="M1008 703 c7 -3 16 -2 19 1 4 3 -2 6 -13 5 -11 0 -14 -3 -6 -6z"/>
<path d="M6501 683 c-10 -26 -10 -27 4 -9 8 11 15 23 15 28 0 15 -7 8 -19 -19z"/>
<path d="M3856 687 c3 -10 9 -15 12 -12 3 3 0 11 -7 18 -10 9 -11 8 -5 -6z"/>
<path d="M4830 689 c0 -5 9 -9 20 -9 11 0 20 2 20 4 0 2 -9 6 -20 9 -11 3 -20
1 -20 -4z"/>
<path d="M6575 689 c-4 -6 -5 -12 -2 -15 2 -3 7 2 10 11 7 17 1 20 -8 4z"/>
<path d="M3976 675 c4 -8 11 -15 16 -15 6 0 5 6 -2 15 -7 8 -14 15 -16 15 -2
0 -1 -7 2 -15z"/>
<path d="M4130 679 c0 -5 9 -9 20 -9 11 0 20 2 20 4 0 2 -9 6 -20 9 -11 3 -20
1 -20 -4z"/>
<path d="M6370 680 c-13 -8 -13 -10 2 -10 9 0 20 5 23 10 8 13 -5 13 -25 0z"/>
<path d="M3827 605 c8 -25 20 -48 26 -52 6 -4 8 -1 5 8 -3 8 -11 31 -19 52 -7
20 -16 37 -20 37 -4 0 -1 -20 8 -45z"/>
<path d="M6143 643 c9 -2 23 -2 30 0 6 3 -1 5 -18 5 -16 0 -22 -2 -12 -5z"/>
<path d="M4583 623 c9 -2 25 -2 35 0 9 3 1 5 -18 5 -19 0 -27 -2 -17 -5z"/>
<path d="M5978 623 c6 -2 18 -2 25 0 6 3 1 5 -13 5 -14 0 -19 -2 -12 -5z"/>
<path d="M2758 613 c6 -2 18 -2 25 0 6 3 1 5 -13 5 -14 0 -19 -2 -12 -5z"/>
<path d="M6185 610 c-19 -8 -19 -9 3 -9 12 -1 22 4 22 9 0 6 -1 10 -2 9 -2 0
-12 -4 -23 -9z"/>
<path d="M2213 603 c9 -2 23 -2 30 0 6 3 -1 5 -18 5 -16 0 -22 -2 -12 -5z"/>
<path d="M2698 603 c6 -2 18 -2 25 0 6 3 1 5 -13 5 -14 0 -19 -2 -12 -5z"/>
<path d="M4923 603 c9 -2 23 -2 30 0 6 3 -1 5 -18 5 -16 0 -22 -2 -12 -5z"/>
<path d="M5118 603 c6 -2 18 -2 25 0 6 3 1 5 -13 5 -14 0 -19 -2 -12 -5z"/>
<path d="M2283 593 c9 -2 23 -2 30 0 6 3 -1 5 -18 5 -16 0 -22 -2 -12 -5z"/>
<path d="M2618 593 c12 -2 30 -2 40 0 9 3 -1 5 -23 4 -22 0 -30 -2 -17 -4z"/>
<path d="M4016 558 c15 -52 35 -78 57 -78 21 1 20 2 -5 15 -18 10 -29 26 -34
50 -3 19 -11 35 -16 35 -5 0 -6 -10 -2 -22z"/>
<path d="M6450 566 c0 -7 -11 -30 -25 -50 -23 -34 -23 -44 1 -28 10 6 44 75
44 88 0 2 -4 4 -10 4 -5 0 -10 -6 -10 -14z"/>
<path d="M4848 563 c7 -3 16 -2 19 1 4 3 -2 6 -13 5 -11 0 -14 -3 -6 -6z"/>
<path d="M5208 553 c7 -3 16 -2 19 1 4 3 -2 6 -13 5 -11 0 -14 -3 -6 -6z"/>
<path d="M3920 526 c0 -2 7 -21 16 -42 9 -22 20 -50 25 -63 5 -13 12 -22 15
-19 2 3 -5 26 -16 52 -24 58 -25 67 -3 59 11 -4 14 -3 9 5 -6 11 -46 18 -46 8z"/>
<path d="M6484 478 c-10 -29 -21 -57 -23 -63 -2 -7 0 -7 6 0 14 15 53 115 44
115 -4 0 -16 -23 -27 -52z"/>
<path d="M6154 483 c-8 -32 -15 -39 -49 -50 l-40 -12 44 2 c43 2 44 3 57 47
16 54 16 50 6 50 -5 0 -13 -17 -18 -37z"/>
<path d="M4948 473 c7 -3 16 -2 19 1 4 3 -2 6 -13 5 -11 0 -14 -3 -6 -6z"/>
<path d="M5118 473 c7 -3 16 -2 19 1 4 3 -2 6 -13 5 -11 0 -14 -3 -6 -6z"/>
<path d="M4201 456 c10 -9 79 -14 79 -5 0 5 -19 9 -42 9 -23 0 -39 -2 -37 -4z"/>
<path d="M6250 451 c0 -4 12 -6 26 -3 29 5 29 -1 -2 -75 -7 -18 -10 -33 -6
-33 4 0 16 27 28 60 l21 60 -33 0 c-19 0 -34 -4 -34 -9z"/>
<path d="M4393 436 c2 -6 24 -13 50 -16 56 -7 52 0 -9 16 -32 8 -44 8 -41 0z"/>
<path d="M4611 406 c10 -8 119 -14 114 -5 -4 5 -31 9 -62 9 -31 0 -54 -2 -52
-4z"/>
<path d="M5883 403 c15 -2 39 -2 55 0 15 2 2 4 -28 4 -30 0 -43 -2 -27 -4z"/>
<path d="M4855 390 c3 -5 32 -10 63 -9 44 1 51 3 32 9 -37 12 -102 12 -95 0z"/>
<path d="M5650 390 c-24 -8 -24 -8 5 -8 17 0 44 4 60 8 l30 8 -35 0 c-19 0
-46 -4 -60 -8z"/>
<path d="M5165 379 c38 -6 63 -5 69 1 7 7 -14 10 -59 9 l-70 -1 60 -9z"/>
<path d="M5370 380 c0 -6 21 -8 58 -4 77 9 78 14 4 14 -35 0 -62 -4 -62 -10z"/>
</g>
</svg>
